# xmcd
#
# Track frame offsets: 
#        150
#        11127
#        21655
#        34282
#        54280
#        70680
#        82882
#        97275
#        112627
#        128370
#        150880
#        167872
#        190335
#        214040
#        229440
#
# Disc length: 3166 seconds
#
# Revision: 0
# Processed by: cddbd v1.5.2PL0 Copyright (c) Steve Scherf et al.
# Submitted via: ExactAudioCopy v0.95b4
#
DISCID=be0c5c0f
DTITLE=Baby Jane Dexter - Big, Bad and Blue - Live
DYEAR=1996
DGENRE=Blues
TTITLE0=Painted Lady
TTITLE1=Live The Life I Sing About In My Song
TTITLE2=Do Right Woman
TTITLE3=Throw It Away
TTITLE4=One Meatball
TTITLE5=Take A Look
TTITLE6=Wish Someone Would Care
TTITLE7=Walk A Mile In My Shoes
TTITLE8=Damn Your Eyes
TTITLE9=Dirty Man
TTITLE10=Blues In The Night
TTITLE11=Something To Live For
TTITLE12=Big Body Woman
TTITLE13=More
TTITLE14=Live The Life...(reprise)
EXTD=
EXTT0=
EXTT1=
EXTT2=
EXTT3=
EXTT4=
EXTT5=
EXTT6=
EXTT7=
EXTT8=
EXTT9=
EXTT10=
EXTT11=
EXTT12=
EXTT13=
EXTT14=
PLAYORDER=
